<?xml version="1.0" standalone="no"?>
<!DOCTYPE svg PUBLIC "-//W3C//DTD SVG 20010904//EN"
 "http://www.w3.org/TR/2001/REC-SVG-20010904/DTD/svg10.dtd">
<svg version="1.0" xmlns="http://www.w3.org/2000/svg"
 width="642.000000pt" height="631.000000pt" viewBox="0 0 642.000000 631.000000"
 preserveAspectRatio="xMidYMid meet">
<metadata>
Created by potrace 1.16, written by Peter Selinger 2001-2019
</metadata>
<g transform="translate(0.000000,631.000000) scale(0.100000,-0.100000)"
fill="#000000" stroke="none">
<path d="M4314 6101 c-138 -67 -164 -83 -184 -115 -19 -32 -22 -47 -18 -101
l6 -63 -42 5 c-22 2 -108 23 -191 45 -236 64 -262 69 -405 75 -118 4 -150 2
-255 -20 -143 -29 -203 -51 -309 -112 l-79 -45 -144 0 -143 0 15 36 c29 69 11
155 -39 188 -13 8 -89 49 -169 90 -127 66 -153 76 -198 76 -100 0 -88 17 -380
-558 -144 -284 -300 -591 -346 -682 -78 -151 -85 -169 -81 -211 8 -79 31 -100
219 -194 178 -89 214 -99 268 -70 16 8 40 28 54 45 l26 30 15 -21 c14 -21 12
-26 -47 -96 -34 -40 -80 -99 -102 -129 -37 -52 -40 -61 -44 -135 -3 -70 0 -86
23 -134 48 -98 137 -155 252 -163 l70 -4 17 -48 c41 -115 148 -196 277 -207
45 -4 63 -10 67 -22 41 -133 152 -221 281 -221 35 0 71 4 81 10 15 8 23 2 47
-36 39 -61 116 -113 181 -121 85 -10 120 2 184 64 l59 56 52 -23 c139 -61 280
-8 363 134 9 16 15 14 69 -18 98 -59 188 -60 274 -3 55 37 108 119 118 182 l6
42 41 -9 c146 -33 297 97 297 256 l0 41 47 3 c93 5 201 79 243 167 43 90 19
234 -51 300 l-29 28 22 36 c12 20 22 37 23 39 2 1 24 -9 51 -23 63 -34 92 -30
237 36 133 61 221 112 242 142 9 13 15 44 15 79 0 56 -13 85 -266 616 -146
306 -293 612 -325 680 -69 143 -90 162 -179 161 -48 0 -77 -11 -216 -78z m243
-53 c6 -7 42 -80 81 -163 38 -82 178 -377 311 -654 201 -421 239 -506 229
-519 -20 -24 -276 -144 -299 -140 -17 2 -41 44 -114 198 -51 107 -192 404
-314 659 -122 255 -221 471 -219 480 3 18 260 149 294 150 12 1 26 -5 31 -11z
m-2246 -78 c77 -39 142 -77 145 -84 6 -17 -653 -1325 -671 -1332 -15 -6 -285
127 -303 149 -11 13 41 122 309 654 177 351 328 648 336 661 7 12 20 22 28 22
9 0 78 -32 156 -70z m1399 -179 c63 -17 157 -42 209 -56 51 -13 132 -28 179
-32 l86 -8 255 -534 255 -534 -30 -54 c-43 -81 -48 -83 -97 -36 -23 22 -217
192 -432 378 -214 186 -424 371 -465 409 -150 141 -243 182 -390 174 -61 -4
-87 -11 -139 -38 -61 -33 -119 -88 -146 -141 -8 -14 -21 -56 -30 -94 -21 -90
-58 -157 -121 -214 -57 -53 -106 -71 -185 -71 -81 0 -83 4 -49 91 31 80 45
152 56 289 5 73 12 95 45 157 42 76 73 108 166 171 67 45 202 115 255 131 187
59 385 63 578 12z m-1069 -193 c-71 -107 -88 -156 -100 -291 -12 -122 -23
-171 -69 -296 -23 -61 -17 -99 20 -139 32 -33 50 -42 116 -52 120 -20 242 22
334 114 74 74 115 148 140 250 19 79 26 90 68 130 70 66 146 81 249 50 43 -12
70 -32 149 -107 53 -51 183 -167 287 -257 105 -91 314 -274 465 -405 151 -132
291 -253 310 -269 51 -42 70 -75 70 -125 0 -88 -67 -151 -162 -151 l-54 0
-380 272 c-442 316 -460 328 -494 328 -62 0 -92 -67 -52 -117 14 -18 329 -247
692 -504 125 -88 135 -100 135 -158 0 -60 -32 -106 -84 -122 -32 -10 -44 -8
-82 9 -24 10 -199 130 -389 266 -302 215 -349 246 -382 246 -67 0 -92 -74 -40
-122 15 -14 151 -114 302 -223 151 -109 287 -210 302 -223 88 -81 -13 -245
-124 -203 -15 6 -157 101 -315 212 -167 117 -297 201 -310 201 -43 1 -80 -52
-65 -92 4 -11 86 -78 182 -150 96 -72 185 -140 197 -152 25 -23 21 -41 -15
-81 -31 -33 -79 -48 -125 -37 -52 11 -58 17 -47 46 17 44 11 116 -14 170 -35
76 -107 127 -207 148 -20 4 -28 16 -42 60 -35 110 -147 199 -262 209 -49 4
-49 5 -63 53 -30 104 -128 194 -235 216 l-57 12 0 46 c-1 88 -73 193 -167 240
-66 34 -178 35 -241 2 -46 -25 -61 -21 -83 20 -15 28 482 1005 514 1011 12 2
52 5 89 6 l67 1 -28 -42z m-374 -1109 c83 -40 122 -126 90 -199 -25 -60 -234
-300 -275 -317 -100 -42 -222 41 -222 152 0 55 3 60 189 278 95 110 135 126
218 86z m281 -315 c43 -18 88 -58 108 -96 30 -57 20 -79 -88 -215 -56 -70
-109 -133 -117 -140 -89 -67 -265 60 -237 171 3 14 55 83 114 153 123 146 145
159 220 127z m339 -275 c64 -24 126 -118 106 -162 -14 -28 -167 -225 -199
-254 -88 -80 -275 65 -225 174 16 34 164 215 192 236 28 19 85 22 126 6z m299
-275 c39 -19 74 -69 74 -107 0 -25 -52 -99 -123 -174 -48 -51 -114 -41 -171
27 -41 50 -35 83 29 165 31 39 65 78 76 88 26 21 71 22 115 1z"/>
<path d="M1777 2189 c-56 -29 -79 -72 -74 -137 6 -80 37 -108 179 -158 96 -34
128 -64 128 -120 0 -35 -5 -47 -30 -67 -16 -14 -47 -28 -69 -32 -53 -9 -140
17 -171 50 -13 14 -32 25 -42 25 -29 0 -21 -35 15 -66 53 -44 93 -56 177 -52
66 3 82 7 114 32 48 36 70 85 61 138 -11 64 -53 102 -151 137 -143 52 -164 68
-164 126 0 36 16 62 48 79 68 35 145 27 201 -19 29 -25 61 -25 61 -1 0 16 -37
50 -77 70 -47 23 -157 21 -206 -5z"/>
<path d="M2255 2197 c-3 -7 -4 -136 -3 -287 l3 -275 161 -3 c132 -2 163 0 173
12 25 30 1 36 -145 36 l-144 0 0 110 0 110 118 0 c122 0 149 7 139 34 -5 13
-26 16 -132 16 l-125 0 0 105 0 105 144 0 c146 0 170 6 146 35 -17 20 -328 22
-335 2z"/>
<path d="M2914 2191 c-179 -81 -230 -320 -100 -468 55 -63 122 -93 208 -93
108 0 214 48 180 82 -8 8 -26 4 -64 -12 -203 -88 -396 81 -334 294 42 143 191
207 336 145 38 -16 54 -19 62 -11 9 9 7 17 -6 31 -45 50 -204 68 -282 32z"/>
<path d="M3489 2183 c-198 -101 -198 -422 0 -525 109 -57 259 -29 331 62 50
64 64 106 64 200 0 94 -14 136 -64 200 -72 90 -220 119 -331 63z m252 -58
c121 -80 122 -330 1 -410 -114 -74 -261 -38 -321 80 -36 69 -36 178 0 250 59
116 209 154 320 80z"/>
<path d="M4083 2203 c-17 -6 -19 -558 -2 -569 28 -17 34 20 39 242 l5 226 164
-222 c186 -251 186 -251 206 -243 23 8 18 568 -5 568 -13 0 -16 -36 -20 -240
l-5 -240 -176 236 c-97 130 -180 239 -185 241 -5 3 -15 3 -21 1z"/>
<path d="M4743 2203 c-10 -3 -13 -70 -13 -283 0 -244 2 -279 16 -284 27 -10
220 -7 276 5 72 16 139 81 162 158 20 69 21 172 0 240 -22 76 -92 145 -163
160 -51 11 -254 14 -278 4z m280 -57 c78 -28 118 -92 125 -201 8 -121 -29
-203 -108 -242 -38 -20 -60 -23 -152 -23 l-108 0 0 240 0 240 103 0 c59 -1
118 -7 140 -14z"/>
<path d="M2285 1118 c-3 -7 -4 -135 -3 -283 3 -262 4 -270 23 -270 19 0 20 8
23 133 l3 132 164 0 164 0 3 -132 c3 -125 4 -133 23 -133 19 0 20 8 23 283 l2
283 -22 -3 c-22 -3 -23 -7 -26 -130 l-3 -128 -164 0 -164 0 -3 127 c-3 113 -5
128 -21 131 -9 2 -19 -3 -22 -10z"/>
<path d="M3097 1118 c-3 -7 -53 -129 -111 -272 -58 -142 -106 -265 -106 -273
0 -9 8 -13 21 -11 17 2 29 21 52 81 l30 77 136 0 136 0 30 -77 c30 -76 58
-103 71 -70 3 8 -44 136 -104 283 -87 213 -114 270 -130 272 -11 2 -22 -3 -25
-10z m83 -218 c27 -68 50 -125 50 -127 0 -2 -49 -3 -110 -3 -60 0 -110 3 -110
8 0 21 105 261 112 254 4 -4 30 -64 58 -132z"/>
<path d="M3537 1123 c-4 -3 -7 -132 -7 -285 0 -270 1 -278 20 -278 19 0 20 8
22 238 l3 237 178 -238 c128 -172 182 -237 195 -235 16 3 17 27 20 281 2 244
0 278 -13 283 -9 4 -19 3 -23 -1 -4 -3 -9 -110 -12 -237 l-5 -230 -175 236
c-96 130 -179 236 -185 236 -7 0 -15 -3 -18 -7z"/>
<path d="M4195 1117 c-3 -7 -4 -134 -3 -282 l3 -270 130 -3 c192 -5 250 19
301 124 57 116 41 283 -34 366 -60 67 -95 78 -255 78 -102 0 -139 -3 -142 -13z
m298 -51 c74 -31 112 -109 112 -231 -1 -69 -5 -87 -29 -131 -43 -79 -78 -94
-220 -94 l-116 0 0 235 0 235 110 0 c71 0 122 -5 143 -14z"/>
</g>
</svg>
